<?xml version="1.0" encoding="utf-8"?>
<?xml-stylesheet type="text/xsl" href="rss1.xsl"?>
<rss version="2.0" xmlns:atom="http://www.w3.org/2005/Atom" xmlns:content="http://purl.org/rss/1.0/modules/content/" xmlns:dc="http://purl.org/dc/elements/1.1/" xmlns:media="http://search.yahoo.com/mrss/">
<channel>
 <title>Getty</title>
 <link>http://www.gettyimg.com/</link>
 <atom:link href="http://www.gettyimg.com/" rel="self" type="application/rss+xml" />

 
                <item>
                <title><![CDATA[【Bugs!】Dreamcatcher - «BEcause» [Bugs! 2160p]]]></title>
                <link><![CDATA[https://sharemania.us/threads/dreamcatcher-%C2%ABbecause%C2%BB-bugs-2160p.228165/]]></link>
                <description><![CDATA[<article>
<blockquote class="messageText SelectQuoteContainer ugc baseHtml">
<div style="text-align: center"><img src="https://i.imgur.com/uSuhtig.jpg" class="bbCodeImage LbImage" alt="[​IMG]" data-url="https://i.imgur.com/uSuhtig.jpg" style=""> <br>
<br>
<img src="https://i.imgur.com/SHk0yKf.jpg" class="bbCodeImage LbImage" alt="[​IMG]" data-url="https://i.imgur.com/SHk0yKf.jpg" style=""> <br>
<div class="ToggleTriggerAnchor bbCodeSpoilerContainer">
<button type="button" class="button bbCodeSpoilerButton ToggleTrigger Tooltip JsOnly" data-target="> .SpoilerTarget"><span>Spoiler: <span class="SpoilerTitle">Media Info</span></span></button>
<div class="SpoilerTarget bbCodeSpoilerText">
<div class="bbCodeBlock bbCodeQuote">
<aside>
<blockquote class="quoteContainer"><div class="quote">General<br>
Complete name : Dreamcatcher - Odd Eye (Bugs!).mp4<br>
Format : MPEG-4<br>
Format profile : Base Media / Version 2<br>
Codec ID : mp42 (isom/mp41/mp42)<br>
File size : 1.19 GiB<br>
Duration : 3 min 21 s<br>
Overall bit rate mode : Variable<br>
Overall bit rate : 50.5 Mb/s<br>
Movie name : DC_Main_FIN<br>
Movie_More : This video is about DC_Main_FIN<br>
Performer : U-IMAC<br>
Keywords : DI,Main DI,2021-01-22,Main DI ad<br>
Encoded date : UTC 2021-01-26 02:48:14<br>
Tagged date : UTC 2021-01-26 02:53:13<br>
thmb : ÿØÿà<br>
<br>
Video<br>
ID : 2<br>
Format : AVC<br>
Format/Info : Advanced Video Codec<br>
Format profile : High@L5.1<br>
Format settings : CABAC / 2 Ref Frames<br>
Format settings, CABAC : Yes<br>
Format settings, Reference frames : 2 frames<br>
Codec ID : avc1<br>
Codec ID/Info : Advanced Video Coding<br>
Duration : 3 min 21 s<br>
Bit rate mode : Variable<br>
Bit rate : 50.3 Mb/s<br>
Maximum bit rate : 768 kb/s<br>
Width : 3 840 pixels<br>
Height : 2 160 pixels<br>
Display aspect ratio : 16:9<br>
Frame rate mode : Constant<br>
Frame rate : 23.976 (24000/1001) FPS<br>
Color space : YUV<br>
Chroma subsampling : 4:2:0<br>
Bit depth : 8 bits<br>
Scan type : Progressive<br>
Bits/(Pixel*Frame) : 0.253<br>
Stream size : 1.18 GiB (100%)<br>
Title : Core Media Video<br>
Encoded date : UTC 2021-01-26 02:48:14<br>
Tagged date : UTC 2021-01-26 02:53:13<br>
Color range : Limited<br>
Color primaries : BT.709<br>
Transfer characteristics : BT.709<br>
Matrix coefficients : BT.709<br>
Codec configuration box : avcC<br>
<br>
Audio<br>
ID : 1<br>
Format : AAC LC<br>
Format/Info : Advanced Audio Codec Low Complexity<br>
Codec ID : mp4a-40-2<br>
Duration : 3 min 21 s<br>
Source duration : 3 min 21 s<br>
Bit rate mode : Constant<br>
Bit rate : 128 kb/s<br>
Channel(s) : 2 channels<br>
Channel layout : L R<br>
Sampling rate : 48.0 kHz<br>
Frame rate : 46.875 FPS (1024 SPF)<br>
Compression mode : Lossy<br>
Stream size : 3.11 MiB (0%)<br>
Source stream size : 3.11 MiB (0%)<br>
Title : Core Media Audio<br>
Language : Korean<br>
Encoded date : UTC 2021-01-26 02:48:14<br>
Tagged date : UTC 2021-01-26 02:53:13</div><div class="quoteExpand">Click to expand...</div></blockquote>
</aside>
</div></div>
</div><b><span style="font-family: 'Book Antiqua'"><span style="font-size: 26px">
<div class="ToggleTriggerAnchor bbCodeSpoilerContainer">
<button type="button" class="button bbCodeSpoilerButton ToggleTrigger Tooltip JsOnly" data-target="> .SpoilerTarget"><span>Spoiler: <span class="SpoilerTitle">Credits</span></span></button>
<div class="SpoilerTarget bbCodeSpoilerText"><span style="color: rgb(179, 179, 0)">Original Uploader</span> - <span style="color: rgb(0, 255, 0)">Glorious60</span> from <span style="color: rgb(0, 128, 255)">Jpopsuki</span></div>
</div></span></span></b><span style="font-family: 'Book Antiqua'"><span style="font-size: 15px"><span data-s9e-mediaembed="youtube" style="display:inline-block;width:100%;max-width:640px"><span style="display:block;overflow:hidden;position:relative;padding-bottom:56.25%"><iframe allowfullscreen="" loading="lazy" scrolling="no" style="background:url(https://i.ytimg.com/vi/PEKkdIT8JPM/hqdefault.jpg) 50% 50% / cover;border:0;height:100%;left:0;position:absolute;width:100%" src="https://www.youtube.com/embed/PEKkdIT8JPM"></iframe></span></span><br>
<br>
<div class="ToggleTriggerAnchor bbCodeSpoilerContainer">
<button type="button" class="button bbCodeSpoilerButton ToggleTrigger Tooltip JsOnly" data-target="> .SpoilerTarget"><span>Spoiler: <span class="SpoilerTitle">Google Drive</span></span></button>
<div class="SpoilerTarget bbCodeSpoilerText"><a href="https://drive.google.com/drive/folders/1pIoeLyhIewtIIGjJ6XdzNYE_EMwI5raI?usp=sharing" target="_blank" class="externalLink" rel="nofollow">https://drive.google.com/drive/folders/1pIoeLyhIewtIIGjJ6XdzNYE_EMwI5raI?usp=sharing</a></div>
</div></span></span>​</div>
<div class="messageTextEndMarker">&nbsp;</div>
</blockquote>
</article>]]></description>
                <author><![CDATA[WithLoveSNSD]]></author>
                </item>

                
                <item>
                <title><![CDATA[【DVD】DVD9 - Acustico MTV Charlie Brown Jr (DVD9) 2003]]></title>
                <link><![CDATA[https://sharemania.us/threads/acustico-mtv-charlie-brown-jr-dvd9-2003.228164/]]></link>
                <description><![CDATA[<article>
<blockquote class="messageText SelectQuoteContainer ugc baseHtml">
<img src="https://i.imgur.com/fvfQY1R.png" class="bbCodeImage LbImage" alt="[​IMG]" data-url="https://i.imgur.com/fvfQY1R.png" style=""> <img src="https://i.imgur.com/aG3Ng6K.jpg" class="bbCodeImage LbImage" alt="[​IMG]" data-url="https://i.imgur.com/aG3Ng6K.jpg" style=""> <img src="https://i.imgur.com/E4AAwIx.jpg" class="bbCodeImage LbImage" alt="[​IMG]" data-url="https://i.imgur.com/E4AAwIx.jpg" style=""> <img src="https://i.imgur.com/gRWnzFb.jpg" class="bbCodeImage LbImage" alt="[​IMG]" data-url="https://i.imgur.com/gRWnzFb.jpg" style=""> <img src="https://i.imgur.com/XJVywTP.jpg" class="bbCodeImage LbImage" alt="[​IMG]" data-url="https://i.imgur.com/XJVywTP.jpg" style=""> <img src="https://i.imgur.com/I0dlOT3.jpg" class="bbCodeImage LbImage" alt="[​IMG]" data-url="https://i.imgur.com/I0dlOT3.jpg" style=""> <img src="https://i.imgur.com/t3jAKv1.jpg" class="bbCodeImage LbImage" alt="[​IMG]" data-url="https://i.imgur.com/t3jAKv1.jpg" style=""> <br>
<div class="bbCodeBlock bbCodeCode">
<div class="type">Code:</div>
<pre>Format                         : DVD Video
Format profile                 : Program
File size                      : 62.0 KiB
Duration                       : 1 h 33 min
Overall bit rate mode          : Variable
Overall bit rate               : 119 b/s
Frame rate                     : 29.970 FPS

Video
ID                             : 224 (0xE0)
Format                         : MPEG Video
Format version                 : Version 2
Duration                       : 1 h 11 min
Bit rate mode                  : Variable
Width                          : 720 pixels
Height                         : 480 pixels
Display aspect ratio           : 16:9
Frame rate                     : 29.970 (29970/1000) FPS
Standard                       : NTSC
Compression mode               : Lossy

Audio #1
ID                             : 128 (0x80)
Format                         : AC-3
Format/Info                    : Audio Coding 3
Duration                       : 1 h 11 min
Channel(s)                     : 6 channels
Sampling rate                  : 48.0 kHz
Compression mode               : Lossy
Language                       : Portuguese

Audio #2
ID                             : 129 (0x81)
Format                         : AC-3
Format/Info                    : Audio Coding 3
Duration                       : 1 h 11 min
Channel(s)                     : 2 channels
Sampling rate                  : 48.0 kHz
Compression mode               : Lossy
Language                       : Portuguese

Audio #3
ID                             : 138 (0x8A)
Format                         : DTS
Format/Info                    : Digital Theater Systems
Duration                       : 1 h 11 min
Channel(s)                     : 5 channels
Sampling rate                  : 48.0 kHz
Language                       : Portuguese</pre>
</div><i><b>Acústico MTV: Charlie Brown Jr.</b></i> é o primeiro álbum ao vivo da banda brasileira Charlie Brown Jr., lançado em 2003 em CD e DVD, sendo o 18º álbum da série <i><a href="https://pt.wikipedia.org/wiki/Ac%C3%BAstico_MTV" target="_blank" class="externalLink" rel="nofollow">Acústico MTV</a></i>, da <a href="https://pt.wikipedia.org/wiki/MTV_Brasil" target="_blank" class="externalLink" rel="nofollow">MTV Brasil</a>.<br>
O álbum vendeu mais de 250 mil cópias, sendo certificado com Disco de Platina pela ABPD. Foi o 3º DVD mais vendido em 2003, e o 9º CD mais vendido do mesmo ano. Em 2020, a revista <i><a href="https://pt.wikipedia.org/wiki/Rolling_Stone_Brasil" target="_blank" class="externalLink" rel="nofollow">Rolling Stone Brasil</a></i> o elegeu como um dos 11 melhores <i>Acústicos MTV</i> brasileiros de todos os tempos.<br>
<br>
<b>Lista de faixas:</b><br>
1 O Que É Da Casa, É Da Casa (Ao Vivo)<br>
2 Papo Reto (Prazer É Sexo, O Resto É Negócio) (Ao Vivo)<br>
3 Vícios E Virtudes (Ao Vivo)<br>
4 Quebra-Mar (Ao Vivo)<br>
5 Tudo Mudar (Ao Vivo)<br>
6 Tudo Pro Alto (Ao Vivo)<br>
7 Hoje (Ao Vivo)<br>
8 Zóio D' Lula (Ao Vivo)<br>
9 Só Por Uma Noite (Ao Vivo)<br>
10 O Preço (Ao Vivo)<br>
11 Não Uso Sapato (Ao Vivo)<br>
12 A Banca (Ao Vivo)<br>
13 Vinheta Beat Box II (Ao Vivo)<br>
14 Como Tudo Deve Ser (Ao Vivo)<br>
15 Tudo Que Ela Gosta De Escutar (Ao Vivo)<br>
16 Não É Sério (Ao Vivo)<br>
17 Proibida Pra Mim (Grazon) (Ao Vivo)<br>
18 Samba Makossa (Ao Vivo)<br>
19 O Côro Vai Comê (Ao Vivo)<br>
20 Quinta-Feira (Ao Vivo)<br>
21 Charlie Brown Jr. (Ao Vivo)<br>
22 Oba, Lá Vem Ela (Ao Vivo)<br>
<div class="bbCodeBlock bbCodeVfcHH HiddenContent">
<div class="attribution type">Hidden Content:</div>
<blockquote>You must either reply or click 'Like' to see the hidden information contained here.</blockquote>
</div>
<div class="messageTextEndMarker">&nbsp;</div>
</blockquote>
</article>]]></description>
                <author><![CDATA[JrAleixo]]></author>
                </item>

                
                <item>
                <title><![CDATA[【Requests】[REQ AUD] - Newjeans - Super Shy Original Version]]></title>
                <link><![CDATA[https://sharemania.us/threads/newjeans-super-shy-original-version.228167/]]></link>
                <description><![CDATA[<article>
<blockquote class="messageText SelectQuoteContainer ugc baseHtml">
Anyone have a lossless copy of this version? <span data-s9e-mediaembed="youtube" style="display:inline-block;width:100%;max-width:640px"><span style="display:block;overflow:hidden;position:relative;padding-bottom:56.25%"><iframe allowfullscreen="" loading="lazy" scrolling="no" style="background:url(https://i.ytimg.com/vi/x_hc-6zDVOA/hqdefault.jpg) 50% 50% / cover;border:0;height:100%;left:0;position:absolute;width:100%" src="https://www.youtube.com/embed/x_hc-6zDVOA"></iframe></span></span><br>
The mastering is different from the version available on platforms
<div class="messageTextEndMarker">&nbsp;</div>
</blockquote>
</article>]]></description>
                <author><![CDATA[Mizz]]></author>
                </item>

                
                <item>
                <title><![CDATA[【Bugs!】Dreamcatcher - «Odd Eye» [Bugs! 2160p]]]></title>
                <link><![CDATA[https://sharemania.us/threads/dreamcatcher-%C2%ABodd-eye%C2%BB-bugs-2160p.228166/]]></link>
                <description><![CDATA[<article>
<blockquote class="messageText SelectQuoteContainer ugc baseHtml">
<div style="text-align: center"><img src="https://i.imgur.com/A0JOd3O.jpg" class="bbCodeImage LbImage" alt="[​IMG]" data-url="https://i.imgur.com/A0JOd3O.jpg" style=""> <br>
<div class="ToggleTriggerAnchor bbCodeSpoilerContainer">
<button type="button" class="button bbCodeSpoilerButton ToggleTrigger Tooltip JsOnly" data-target="> .SpoilerTarget"><span>Spoiler: <span class="SpoilerTitle">Media Info</span></span></button>
<div class="SpoilerTarget bbCodeSpoilerText">
<div class="bbCodeBlock bbCodeQuote">
<aside>
<blockquote class="quoteContainer"><div class="quote">General<br>
Complete name : Dreamcatcher - Odd Eye (Bugs!).mp4<br>
Format : MPEG-4<br>
Format profile : Base Media / Version 2<br>
Codec ID : mp42 (isom/mp41/mp42)<br>
File size : 1.19 GiB<br>
Duration : 3 min 21 s<br>
Overall bit rate mode : Variable<br>
Overall bit rate : 50.5 Mb/s<br>
Movie name : DC_Main_FIN<br>
Movie_More : This video is about DC_Main_FIN<br>
Performer : U-IMAC<br>
Keywords : DI,Main DI,2021-01-22,Main DI ad<br>
Encoded date : UTC 2021-01-26 02:48:14<br>
Tagged date : UTC 2021-01-26 02:53:13<br>
thmb : ÿØÿà<br>
<br>
Video<br>
ID : 2<br>
Format : AVC<br>
Format/Info : Advanced Video Codec<br>
Format profile : High@L5.1<br>
Format settings : CABAC / 2 Ref Frames<br>
Format settings, CABAC : Yes<br>
Format settings, Reference frames : 2 frames<br>
Codec ID : avc1<br>
Codec ID/Info : Advanced Video Coding<br>
Duration : 3 min 21 s<br>
Bit rate mode : Variable<br>
Bit rate : 50.3 Mb/s<br>
Maximum bit rate : 768 kb/s<br>
Width : 3 840 pixels<br>
Height : 2 160 pixels<br>
Display aspect ratio : 16:9<br>
Frame rate mode : Constant<br>
Frame rate : 23.976 (24000/1001) FPS<br>
Color space : YUV<br>
Chroma subsampling : 4:2:0<br>
Bit depth : 8 bits<br>
Scan type : Progressive<br>
Bits/(Pixel*Frame) : 0.253<br>
Stream size : 1.18 GiB (100%)<br>
Title : Core Media Video<br>
Encoded date : UTC 2021-01-26 02:48:14<br>
Tagged date : UTC 2021-01-26 02:53:13<br>
Color range : Limited<br>
Color primaries : BT.709<br>
Transfer characteristics : BT.709<br>
Matrix coefficients : BT.709<br>
Codec configuration box : avcC<br>
<br>
Audio<br>
ID : 1<br>
Format : AAC LC<br>
Format/Info : Advanced Audio Codec Low Complexity<br>
Codec ID : mp4a-40-2<br>
Duration : 3 min 21 s<br>
Source duration : 3 min 21 s<br>
Bit rate mode : Constant<br>
Bit rate : 128 kb/s<br>
Channel(s) : 2 channels<br>
Channel layout : L R<br>
Sampling rate : 48.0 kHz<br>
Frame rate : 46.875 FPS (1024 SPF)<br>
Compression mode : Lossy<br>
Stream size : 3.11 MiB (0%)<br>
Source stream size : 3.11 MiB (0%)<br>
Title : Core Media Audio<br>
Language : Korean<br>
Encoded date : UTC 2021-01-26 02:48:14<br>
Tagged date : UTC 2021-01-26 02:53:13</div><div class="quoteExpand">Click to expand...</div></blockquote>
</aside>
</div></div>
</div><b><span style="font-family: 'Book Antiqua'"><span style="font-size: 26px">
<div class="ToggleTriggerAnchor bbCodeSpoilerContainer">
<button type="button" class="button bbCodeSpoilerButton ToggleTrigger Tooltip JsOnly" data-target="> .SpoilerTarget"><span>Spoiler: <span class="SpoilerTitle">Credits</span></span></button>
<div class="SpoilerTarget bbCodeSpoilerText"><span style="color: rgb(179, 179, 0)">Original Uploader</span> - <span style="color: rgb(0, 255, 0)">Glorious60</span> from <span style="color: rgb(0, 128, 255)">Jpopsuki</span></div>
</div></span></span></b><span style="font-family: 'Book Antiqua'"><span style="font-size: 15px"><span data-s9e-mediaembed="youtube" style="display:inline-block;width:100%;max-width:640px"><span style="display:block;overflow:hidden;position:relative;padding-bottom:56.25%"><iframe allowfullscreen="" loading="lazy" scrolling="no" style="background:url(https://i.ytimg.com/vi/1QD0FeZyDtQ/hqdefault.jpg) 50% 50% / cover;border:0;height:100%;left:0;position:absolute;width:100%" src="https://www.youtube.com/embed/1QD0FeZyDtQ"></iframe></span></span><br>
<br>
<div class="ToggleTriggerAnchor bbCodeSpoilerContainer">
<button type="button" class="button bbCodeSpoilerButton ToggleTrigger Tooltip JsOnly" data-target="> .SpoilerTarget"><span>Spoiler: <span class="SpoilerTitle">Google Drive</span></span></button>
<div class="SpoilerTarget bbCodeSpoilerText"><a href="https://drive.google.com/drive/folders/1Cf0QvfYw3v2m6UnMLSq3KBlm8fXy-cZE?usp=sharing" target="_blank" class="externalLink" rel="nofollow">https://drive.google.com/drive/folders/1Cf0QvfYw3v2m6UnMLSq3KBlm8fXy-cZE?usp=sharing</a></div>
</div></span></span>​</div>
<div class="messageTextEndMarker">&nbsp;</div>
</blockquote>
</article>]]></description>
                <author><![CDATA[WithLoveSNSD]]></author>
                </item>

                </channel></rss>